<?xml version="1.0" encoding="UTF-8"?>
<svg xmlns="http://www.w3.org/2000/svg" width="946" height="470">
  <g fill="#000" fill-rule="nonzero">
    <path d="M945.6 146.8a9 9 0 00-.4 1.59c-1 13.76-7.1 24.86-17.72 33.53-6.87 5.6-14.81 9.08-23.32 11.35a121.44 121.44 0 01-25 3.91 414.2 414.2 0 01-20.13.53c-45.813.04-91.623.04-137.43 0h-3c-.54-1.92-.78-182.8-.26-188.57.8 0 1.64-.09 2.49-.09H874c8 0 16 .12 23.9 1.54a76.44 76.44 0 0112 3.07c13.82 4.94 21.92 15 25.05 29.13a50.65 50.65 0 01.15 20.95 36.16 36.16 0 01-16.74 24.37 56.92 56.92 0 01-14.88 6.52c-.81.24-1.6.54-2.84 1 4.15.82 7.81 1.46 11.43 2.27a47.22 47.22 0 0114.65 5.79A37.73 37.73 0 01945 131.06c.27 1.72.41 3.46.61 5.19l-.01 10.55zm-159.88 7.77c.84.06 1.47.14 2.1.14 22.633 0 45.26-.017 67.88-.05a60.81 60.81 0 009.54-.69c7-1.14 11.82-5.61 13-12.06a28.12 28.12 0 00.28-7.39c-.56-6.36-4-10.38-10.22-11.64a54 54 0 00-10.23-1c-23.35-.08-46.69 0-70 0h-2.29l-.06 32.69zm.25-73.7c1 0 1.75.11 2.53.11h60.19c3.11 0 6.24-.12 9.34-.4 4.45-.41 8.44-1.9 11.07-5.8A14.18 14.18 0 00861.92 53a13.2 13.2 0 00-3.27-.72c-2.54-.23-5.1-.45-7.65-.45-20.94-.04-41.883-.04-62.83 0-.69 0-1.39.09-2.2.14v28.9zM140.09 0c3.24.32 6.49.65 9.73 1 15.48 1.47 30.74 4 45.35 9.57a85.78 85.78 0 0135.45 25 62.51 62.51 0 019.74 16.35 16.28 16.28 0 01-1.67.35L203.16 56c-9.3.967-18.597 1.943-27.89 2.93a3.11 3.11 0 01-2.76-1c-9.94-10-22.22-14.44-36-15.13A72.67 72.67 0 00109 46.21c-19.44 6.66-31.46 20.36-37 39.93a65 65 0 00-.35 34.38c4.59 17.76 15.78 29.8 33 35.74 19.63 6.77 38.88 5.12 57.36-4.4a46.73 46.73 0 0014.23-11.23 32.55 32.55 0 006.23-10.71c.24-.74.41-1.5.71-2.62-5.62-.08-11 0-16.42 0h-32.25c-.54-1.88-.67-39.51-.17-42.64h112.91v113.05h-59.08v-20.4a6.66 6.66 0 00-1.21.6c-13.14 11.62-28.55 18.61-45.6 22.18A157.82 157.82 0 0196 202.86C78.22 201.43 61.23 197 45.66 188c-24.22-14-38.823-34.8-43.81-62.4-3.61-20.13-2-39.84 5.54-58.89 8.29-20.84 22.7-36.46 41.9-47.77 12.74-7.51 26.54-12.16 41-15A197.63 197.63 0 01119.05.39a21 21 0 002.33-.39h18.71zM858.29 469.2c-1.56-.3-3.14-.52-4.66-.92a22.6 22.6 0 01-4-1.42 6 6 0 01-3.45-6.29 5.73 5.73 0 014.37-5.37l2.09-.71c-.64-.35-1-.59-1.4-.76a5.6 5.6 0 01-3.65-5.65c0-2.55 1.51-4.1 3.68-5.13.7-.32 1.44-.55 2.43-.93-.63-.47-1-.81-1.47-1.1-3.73-2.56-4.8-6.26-4.31-10.49a10.07 10.07 0 016.67-8.64 22.37 22.37 0 019.67-1.19c1.18.06 2.36.21 3.68.33.11-.77.2-1.46.31-2.15.37-2.52 1.46-3.74 4-4 2-.19 4 0 6.09 0 .55 2.25.17 4.45.28 6.93h-6.9l-.15.46c.356.352.73.686 1.12 1 3.66 2.64 4.65 6.37 4.15 10.58a9.84 9.84 0 01-6.8 8.51 24 24 0 01-12.29.78 2.23 2.23 0 00-2.81 2.7 2 2 0 001.61 1.87 14.43 14.43 0 003.07.4c3.19.05 6.39-.07 9.58.05a22.51 22.51 0 015.43.76 7.91 7.91 0 015.82 6.9c1 6.39-1.62 10.49-7.9 12.24-2.13.6-4.36.88-6.55 1.3l-7.71-.06zm3.49-13h-6a1.89 1.89 0 00-2 1.36c-1 2.37.11 4.43 2.84 4.91 3.778.64 7.635.66 11.42.06 2.39-.35 3.65-1.69 3.52-3.48-.13-1.79-1.42-2.68-3.85-2.78-1.95-.12-3.94-.05-5.93-.05v-.02zm1-19.06a20.46 20.46 0 002.68-.6 3.45 3.45 0 002.37-2.79c.68-4.13-.45-6.93-5.36-6.94a13.51 13.51 0 00-1.67.11c-1.8.23-3.31 1.05-3.73 2.87-.49 2.1-.76 4.35 1.12 6a6.43 6.43 0 002.33 1.1 11.35 11.35 0 002.21.27l.05-.02zM612.6 197.61v-25.27c-.92.75-1.54 1.22-2.11 1.73-15.28 13.72-33.21 21.91-53.32 25.56a153.35 153.35 0 01-41.8 1.77c-12.48-1.17-24.6-3.92-36-9.45-21.2-10.32-33.44-27.31-37.56-50.36a108.17 108.17 0 01-1.53-19.1V9.22h84.43v97.08a59.55 59.55 0 001.47 14.51c2.44 9.74 8.1 16.89 17.16 21.27a53 53 0 0025.44 4.92 53.59 53.59 0 0014.14-2.41c14.28-4.46 22.81-14.1 25.9-28.68a97.65 97.65 0 001.74-20c.07-27.82 0-55.64 0-83.46V9.24h83.92v188.37H612.6zM845.41 304.77H695.74c.24 1.13.38 2 .6 2.76 3.83 14.07 12.92 23.07 26.73 27.3 13.25 4.06 26.06 2.5 38.4-3.58a30.71 30.71 0 008.56-6.49 4 4 0 013.36-1.36c14.29.77 28.58 1.47 42.87 2.19l22.52 1.09c.77 0 1.55.11 2.59.18-.45.92-.75 1.63-1.12 2.31-8.08 15-20.31 25.49-35.59 32.65a133.88 133.88 0 01-32.68 10 207.15 207.15 0 01-47 3.28c-17.85-.77-35.26-3.79-51.75-11-12.43-5.42-23.31-13-31.82-23.66-9-11.29-13.69-24.23-14.89-38.55a77.4 77.4 0 015.09-35.74c6.7-16.77 18.56-28.88 34.32-37.33a105.94 105.94 0 0131.71-10.54c14.63-2.62 29.4-3 44.21-2.65a186.73 186.73 0 0131.15 3.12c14.76 2.89 28.69 7.85 40.8 17 17.63 13.35 28.14 30.91 30.59 53 .5 4.52.68 9.08 1 13.62.06.76.02 1.46.02 2.4zm-70.69-26.28c-.24-.71-.38-1.23-.57-1.73-4-10.65-11.79-17.23-22.47-20.55a54 54 0 00-23.95-1.48c-13.65 1.94-23.45 9.06-28.88 21.89-.24.55-.39 1.15-.62 1.87h76.49zM614.79 304.88H465.16c.2 1.06.31 1.83.51 2.58 4 14.8 13.71 23.83 28.26 27.82 12.74 3.49 25 1.8 36.81-4a31.47 31.47 0 008.74-6.64 3.74 3.74 0 013.16-1.24 9178.15 9178.15 0 0042.87 2.18l22.52 1.1c.79 0 1.58.08 2.71.15-.48.95-.83 1.72-1.23 2.46-8.07 14.9-20.24 25.35-35.43 32.48a133.89 133.89 0 01-32.67 10 207.11 207.11 0 01-47 3.29c-17.86-.76-35.26-3.77-51.77-10.94-12.13-5.27-22.79-12.59-31.24-22.87a68.61 68.61 0 01-15.26-36.41c-1.73-14.86.12-29.21 6.56-42.79 7.18-15.16 18.73-26.09 33.51-33.76a107.68 107.68 0 0133.47-10.48c17.71-2.74 35.51-2.81 53.34-1.58a139.07 139.07 0 0135.91 6.88c17.21 5.91 31.42 15.92 42 30.86a72.26 72.26 0 0112.63 33c.68 5.38.86 10.83 1.26 16.25 0 .44-.03.83-.03 1.66zM544 278.48c-.23-.7-.38-1.22-.57-1.72-4-10.65-11.79-17.24-22.46-20.55a54.08 54.08 0 00-24-1.48c-13.75 2-23.57 9.16-29 22.11a15.82 15.82 0 00-.48 1.64H544zM354.61 197.62h-83.38V9.24H355c.08 9.56 0 19.1 0 29.27 2-2.6 3.64-4.81 5.42-6.87a77.24 77.24 0 015.81-6.05 70.19 70.19 0 016.49-5.31 77.53 77.53 0 017.07-4.5 79.79 79.79 0 017.27-3.67 74 74 0 017.84-2.94 76.13 76.13 0 018.14-2c2.74-.52 5.52-.89 8.3-1.16 2.78-.27 5.55-.31 8.27-.45.53 1.94.65 71.2.15 74.25-1.21-.09-2.46-.13-3.7-.28a131.18 131.18 0 00-23.94-.77 62.93 62.93 0 00-16.26 2.75 35.93 35.93 0 00-3.59 1.32c-10.42 4.61-16.32 12.52-17.23 24-.29 3.58-.43 7.18-.44 10.78v77l.01 3.01zM166.76 256.52l-52.36 3a14.88 14.88 0 01-.65-1.53 14.47 14.47 0 00-8.75-9.59 35.23 35.23 0 00-11.17-2.53 56.79 56.79 0 00-19 1.24 20.58 20.58 0 00-6.93 3.18c-4.87 3.47-5.34 12 .93 15.25a57.26 57.26 0 0013.94 5c11 2.5 22 4.78 33 7.23 8 1.77 16 2.94 23.73 5.77a73.42 73.42 0 0112 5.34c13.14 7.82 19 19.7 18 34.81-1.13 16.8-9.4 29.39-23.71 38.07-7.6 4.61-16 7.28-24.63 9-15.6 3.16-31.39 3.78-47.25 3.12a127.77 127.77 0 01-28.18-4.06 69.4 69.4 0 01-17.73-7.2c-13.51-8.12-21-20.16-23.14-35.68a8.063 8.063 0 01-.09-1.2c.03-.31.083-.618.16-.92l52.46-1.5c.227.35.418.722.57 1.11 1.43 5.28 4.87 8.88 9.54 11.45A37.93 37.93 0 0081.19 340a63.15 63.15 0 0020.53-.37 35 35 0 006.63-2 14.8 14.8 0 007.53-7.08 10.57 10.57 0 00-3.28-13.85 20 20 0 00-7.87-3.4c-9.39-1.94-18.77-3.89-28.17-5.74-11.21-2.21-22.48-4.09-33.36-7.71-7.76-2.58-14.88-6.27-20.67-12.17-8.28-8.44-11.41-18.73-10.25-30.3 1.46-14.43 8.9-25.23 21-32.92 8-5 16.77-7.79 25.94-9.52 13.28-2.51 26.68-2.82 40.13-2.08a151.83 151.83 0 0127.54 3.59 83 83 0 0113.41 4.37c14.38 6.24 23.08 17.22 26.17 32.61.15.79.29 1.57.42 2.36a3.56 3.56 0 01-.13.73zM390.33 216.88v59.61c-1.65-.14-3.15-.23-4.64-.39a88.2 88.2 0 00-26.5.71 37 37 0 00-5.08 1.39c-9.73 3.47-15.12 10.3-15.82 20.68-.15 2.23-.21 4.48-.21 6.71v65.27h-66.84V220h66.91a73.16 73.16 0 01.13 7.55v15.76c2.47-2.92 4.45-5.58 6.77-7.91a60.1 60.1 0 017.6-6.57 62 62 0 018.62-5.17 58.12 58.12 0 019.08-3.68 68.31 68.31 0 019.81-2.13c3.3-.54 6.65-.67 10.17-.97zM257.44 338v32.79a11 11 0 01-1.64.21c-12.39 0-24.78 0-37.17-.16a65.23 65.23 0 01-15.63-1.9 36.58 36.58 0 01-5-1.71c-6.37-2.72-9.85-7.73-10.83-14.44a62.27 62.27 0 01-.53-9.56c.19-17.19.49-34.37.74-51.56 0-.7-.07-1.4-.12-2.27h-15.6c-.56-1.88-.67-27.41-.14-30.18h16.26c.25-4.47.2-8.75.25-13 .05-4.25.07-8.79.1-13.19s.08-8.6.13-13.05h50.04c.24 6.51.07 13 .1 19.55.03 6.55 0 12.91 0 19.65h18.7v30.14h-18.35c-.08.93-.18 1.62-.18 2.31v35a27.73 27.73 0 00.37 4.06c.6 3.8 2.47 5.93 6.27 6.58 2.846.38 5.71.61 8.58.69 1.21.04 2.37.04 3.65.04zM867.22 289.28h-16.06v-30.14h16.55c.12-13.19.25-26.1.37-39.37h50c.21 6.66.06 13.18.09 19.7s0 12.9 0 19.64h18.73v30.14h-18.35c-.07.95-.16 1.64-.16 2.34v35a25 25 0 00.37 4c.62 3.75 2.61 5.89 6.35 6.54a63.23 63.23 0 007.15.59c1.58.09 3.17 0 4.91 0v32.89c-.76.06-1.45.15-2.14.15-10.32 0-20.63.08-30.94 0-7-.06-13.91-.31-20.73-1.9a36.15 36.15 0 01-5.44-1.81c-6.5-2.71-10-7.79-11-14.6a58.56 58.56 0 01-.52-9.08c.21-17.1.51-34.21.78-51.31.05-.8.04-1.65.04-2.78zM681.38 410.26h10.79c2.553 11.04 5.113 22.087 7.68 33.14h.43c2.18-11 4.37-22 6.57-33.06h9.35c-3.5 15-7 29.86-10.43 44.82h-11.28c-2.573-11.04-5.147-22.097-7.72-33.17h-.52a43849.45 43849.45 0 01-7.77 33.21h-11.32L657 410.35h9.73c2.16 11 4.34 22.11 6.53 33.2 3.04-10.95 5.41-22.06 8.12-33.29zM416.13 440.67l7.83 4.54c-2.74 5.4-6.46 9.18-12.29 10.46a22.9 22.9 0 01-10.22-.13c-7-1.63-11.26-6.13-13.23-12.84a33.76 33.76 0 01.06-19.61c3.57-11.8 13-14.66 21.58-13.61 7 .85 11.38 4.28 13.82 10.62l-8.08 4.2a14.54 14.54 0 01-.89-1.43c-1.77-3.82-4.93-5-8.87-4.63a8.27 8.27 0 00-7.68 5.87 16 16 0 00-.81 4.45c-.12 2.79-.05 5.59 0 8.39.026.718.106 1.434.24 2.14 1 5.93 5.53 9.1 11.45 8a7.63 7.63 0 004.79-2.95c.74-1.01 1.39-2.14 2.3-3.47zM102.42 420.08l-8.11 4.22a15 15 0 01-.88-1.42c-1.72-3.7-4.75-4.95-8.63-4.67a9.15 9.15 0 00-8.56 8.67c-.06 3.91-.28 7.84 0 11.72.5 6.25 5.58 9.78 11.68 8.44a8.35 8.35 0 005.15-3.66c.54-.78 1-1.62 1.63-2.64 2.71 1.28 5.19 2.93 7.91 4.47-2.85 5.69-6.84 9.56-13.15 10.61a23.62 23.62 0 01-10.21-.51 16.66 16.66 0 01-10.82-8.79 23.33 23.33 0 01-2.46-8 36.79 36.79 0 011-15.65c3.32-10.61 11.79-14.39 21.25-13.5a16.06 16.06 0 0113.7 9.47c.19.403.358.817.5 1.24zM485.84 440.89h-21.45c-.35 4.62 1.88 7.29 6.17 7.65a9.72 9.72 0 007.57-2.32c.59-.52 1.22-1 1.9-1.52.44.49.83.88 1.17 1.31 1.16 1.42 2.3 2.85 3.51 4.37a8.86 8.86 0 01-3.4 3 20.51 20.51 0 01-16.9 1.73 13.55 13.55 0 01-9-9.24 24.08 24.08 0 01.05-15.33c2-5.95 6.3-9.27 12.58-9.89a23.15 23.15 0 014.78.05 13.51 13.51 0 0111.64 8.73 23.41 23.41 0 011.38 11.46zm-10-5.84c.2-4.84-1.86-7.46-5.63-7.41-3.77.05-6.25 3-5.85 7.41h11.48zM491.9 427a13.6 13.6 0 018.9-6.07 24.92 24.92 0 0110.7.23c5.39 1.36 8.43 5.09 8.57 10.68.11 4.39 0 8.79 0 13.18v2.44l3.1.34v7.33a61 61 0 01-6.5-.05 5.63 5.63 0 01-4.52-3.53c-.29-.63-.57-1.27-.9-2a11.39 11.39 0 01-15.6 5.46 9.42 9.42 0 01-2.67-2c-4.27-4.58-2.8-12.71 2.77-15.55a19.24 19.24 0 018.58-1.87h5.72c.23-.35.3-.41.31-.48.26-2.46.32-5-2.22-6.32a7.48 7.48 0 00-7.95.65 28.58 28.58 0 00-2.81 2.48L491.9 427zm18.53 14.13a20.86 20.86 0 00-7.29.21 4.3 4.3 0 00-2.23 6.57c1.3 1.63 3.19 1.68 5.06 1.4 1.87-.28 3.6-.87 4.35-2.88a1.32 1.32 0 00.1-.47c.01-1.54.01-3.11.01-4.79v-.04zM637.44 440.85H616c-.54 4 1.23 6.7 4.8 7.47a9.64 9.64 0 008.38-1.73c.75-.59 1.48-1.19 2.44-2l4.67 5.82a11.6 11.6 0 01-4.14 3.37 20.85 20.85 0 01-15.12 1.66 13.71 13.71 0 01-10.03-9.36 23.88 23.88 0 010-15.53c2-5.94 6.3-9.29 12.57-9.85a22 22 0 016 .19 13.48 13.48 0 0110.63 9 24.49 24.49 0 011.24 10.96zm-9.87-5.76c0-2.89-.32-5.44-2.94-6.8a5.76 5.76 0 00-6.52.64c-1.94 1.54-2.5 3.68-2.22 6.16h11.68zM138.53 440.88H117c-.49 4.07 1.39 6.81 5.1 7.5a9.68 9.68 0 008.34-1.94c.67-.56 1.35-1.1 2.22-1.81l4.67 5.79a14.16 14.16 0 01-7.47 4.77 21.3 21.3 0 01-10.89.53c-5.4-1.21-9.19-4.38-11-9.67a24 24 0 01-.06-15.31c2-6.07 6.31-9.45 12.67-10.06a22.77 22.77 0 015 .08 13.44 13.44 0 0111 7.85c1.87 3.76 2.15 7.79 1.95 12.27zm-10-5.82c.18-4.87-1.93-7.5-5.7-7.41-3.77.09-6.32 3.14-5.8 7.41h11.5zM237.3 450.42a14.12 14.12 0 01-7.14 4.67 21.26 21.26 0 01-11.35.6 14.1 14.1 0 01-10.95-10 24.3 24.3 0 01-.05-14.64 14 14 0 0113-10.38 22.43 22.43 0 016 .27c5.38 1.09 8.92 4.42 10.67 9.61a24.55 24.55 0 011 10.22c-2.37.16-4.75.05-7.11.07-2.36.02-4.8 0-7.19 0H217c-.38 4.54 1.74 7.22 5.89 7.66a9.68 9.68 0 007.63-2.13c.65-.56 1.34-1.08 2.09-1.69.39.43.73.76 1 1.12 1.19 1.49 2.39 2.98 3.69 4.62zM228.54 435c0-2.69-.24-5.16-2.66-6.6a5.74 5.74 0 00-6.54.3 6.14 6.14 0 00-2.44 6.3h11.64zM145.55 421.33H155v5l.39.08c.33-.5.66-1 1-1.5 2.34-3.71 5.85-4.67 10-4.29a8.65 8.65 0 017.89 6 20.61 20.61 0 011.24 6.29c.16 7 .07 14.06.07 21.09a10.46 10.46 0 01-.15 1.08h-9.32c0-.8-.12-1.64-.12-2.48v-17.25a22.68 22.68 0 00-.46-4.27 3.67 3.67 0 00-3.35-3c-4.09-.68-7.08 1.8-7.1 5.95v21.01h-9.45l-.09-33.71zM811 421.27h9.21v5l.43.14c.32-.46.66-.91 1-1.39 2.3-3.73 5.81-4.74 9.92-4.38a8.69 8.69 0 018 6.17 21.63 21.63 0 011.15 6.32c.14 6.95.06 13.91.05 20.86a12 12 0 01-.17 1.28c-3 .08-6 0-9.25 0 0-.93-.15-1.77-.15-2.6v-16.79a25 25 0 00-.26-4.06c-.42-2.55-1.9-3.76-4.48-3.72-3.17.05-6.27 1.63-6.13 6 .19 6.07 0 12.15 0 18.22v2.78h-9.18c-.5-1.6-.68-29.99-.14-33.83zM307.83 438.44a21.56 21.56 0 012-9.78 13.67 13.67 0 019.12-7.53 18.9 18.9 0 019-.15 13.51 13.51 0 0110 8.46 22.91 22.91 0 01.06 17.55c-2.8 7-9 9.73-16.06 9.07-8-.76-13.16-6.17-14-14.51-.03-1.04-.05-2.08-.12-3.11zm21.8 0c0-1.67.12-3.36 0-5a5.47 5.47 0 00-5.61-5.39c-3.24-.11-5.64 1.67-5.92 5a63.47 63.47 0 000 10.5c.27 3.42 2.69 5.18 6.1 5 3.18-.15 5.22-2.17 5.46-5.53.06-1.5-.03-3.02-.03-4.54v-.04zM304.58 407.47v7.38h-6.45v6.24h6.45c.22 2.55.1 4.9.09 7.56H298v26.46h-9.59c-.16-2.78-.05-5.62-.07-8.46-.02-2.84 0-5.9 0-8.86v-8.88l-4.65-.25v-7.35l4.53-.23c0-.89.09-1.74.11-2.58v-1.92c.15-5.31 2.77-8.44 8-9.05a70.6 70.6 0 018.25-.06zM591.65 455.18h-11.47c-3.67-11.24-7.33-22.43-11-33.85h9.58c2.43 8.51 4.87 17.08 7.49 26.25 1.53-4.69 2.35-9 3.58-13.26s2.55-8.57 3.87-13h9.06l-11.11 33.86zM541.16 447.66H547v7.78a82.34 82.34 0 01-8.92-.62c-3.76-.64-6-3.25-6.48-7a32.57 32.57 0 01-.19-4.31v-14.59l-4.51-.21c-.53-2.42-.18-4.78-.25-7.36l2.43-.14c2.17-.16 3.05-.89 3.21-3.07.14-1.9 0-3.82 0-5.92H541v8.94h6.65v7.53h-6.44l-.05 18.97zM195.66 447.68h5.74c.55 2.52.17 4.88.27 7.56-3.63-.05-7.11.51-10.5-.79a7.71 7.71 0 01-5-6.23 22.08 22.08 0 01-.3-3.81V428.92l-4.67-.28a73.8 73.8 0 010-7.46c1 0 1.81.05 2.65 0 1.91-.15 2.78-.89 2.92-2.81.14-1.92 0-4 0-6.19a75.24 75.24 0 018.76-.1v9.17h6.56v7.51h-6.43v18.92zM785.31 421.07v7.61h-6.56c-.12 6.41 0 12.57-.07 19h6.06v7.53c-3.22.08-6.39.43-9.5-.44a7.57 7.57 0 01-5.69-5.88 17.85 17.85 0 01-.45-3.79c-.05-4.55 0-9.1 0-13.65v-2.52l-4.66-.26a52.57 52.57 0 010-7.33c.91-.05 1.76-.08 2.6-.15 2-.18 2.91-1 3-3 .09-2 0-3.81 0-6a67.94 67.94 0 018.57-.11v9l6.7-.01zM366.88 421.32v8.48c-.73.07-1.42.12-2.1.2a41.28 41.28 0 00-5 .6c-2.39.56-3.3 1.8-3.48 4.24-.05.71 0 1.44 0 2.15v18.12h-9.17c-.5-1.71-.63-30.72-.14-33.77h9.24v5.92c1.37-1.77 2.34-3.63 4.2-4.78a9.35 9.35 0 016.45-1.16zM450.37 421.31V430h-2.88a28.25 28.25 0 00-3.33.36c-3.08.56-4.25 1.93-4.29 5.07v19.72c-3.19.15-6.24 0-9.44.06v-33.9h9.41v6.21c1.22-2.29 2.51-4.32 4.84-5.5a9.58 9.58 0 015.69-.71zM245.43 421.27h9.22v6.34l.42.23c1.73-4.78 4.94-7.15 10.2-6.53v8.52c-.66.05-1.34.1-2 .17a41.57 41.57 0 00-4.75.53c-2.57.58-3.64 1.94-3.71 4.58-.07 3.19 0 6.39 0 9.58v10.42h-9.2c-.52-1.63-.68-30.21-.18-33.84zM732.15 455.13h-9.44v-33.76H732v6.25l.43.26c1.77-4.73 4.92-7.22 10.23-6.57v8.48c-.51.06-1.11.15-1.71.2-1.35.12-2.72.14-4.05.34-3.47.52-4.71 1.93-4.74 5.44v13.66l-.01 5.7zM749 421.28h8.93c.52 1.7.68 30.35.18 33.82h-8.92c-.53-1.65-.72-29.87-.19-33.82zM792.35 421.27h8.93c.5 1.71.67 30.24.19 33.84h-9c-.47-1.62-.62-30.19-.12-33.84zM554.54 455.19v-33.82h9c.55 1.7.63 31.48.06 33.82h-9.06zM797 406.76c4.68 0 7.14 4.11 5 8.31-1 2-3.56 2.85-6.77 2.29a4.32 4.32 0 01-3.81-4v-.47c-.42-4.16 1.41-6.14 5.58-6.13zM759.07 412c0 3.82-1.66 5.44-5.61 5.42-3.95-.02-5.51-1.63-5.52-5.29 0-3.81 1.67-5.42 5.63-5.41 3.96.01 5.49 1.64 5.5 5.28zM564.74 412c0 3.84-1.64 5.46-5.58 5.45-3.94-.01-5.52-1.6-5.54-5.26 0-3.83 1.64-5.44 5.59-5.44s5.51 1.59 5.53 5.25z"></path>
  </g>
</svg>
